<svg data-v-0dd9719b="" version="1.0" xmlns="http://www.w3.org/2000/svg" xmlns:xlink="http://www.w3.org/1999/xlink" width="100%" height="100%" viewBox="0 0 340.000000 250.000000" preserveAspectRatio="xMidYMid meet" color-interpolation-filters="sRGB" style="margin: auto;"> <rect data-v-0dd9719b="" x="0" y="0" width="100%" height="100%" fill="#fff" fill-opacity="1" class="background"></rect> <rect data-v-0dd9719b="" x="0" y="0" width="100%" height="100%" fill="url(#watermark)" fill-opacity="1" class="watermarklayer"></rect> <g data-v-0dd9719b="" fill="#333" class="icon-text-wrapper icon-svg-group iconsvg" transform="translate(47.849998474121094,88.99899291992188)"><g class="iconsvg-imagesvg" transform="translate(0,0)"><g><rect fill="#333" fill-opacity="0" stroke-width="2" x="0" y="0" width="60" height="72.00201605644958" class="image-rect"></rect> <svg x="0" y="0" width="60" height="72.00201605644958" filtersec="colorsb798961461" class="image-svg-svg primary" style="overflow: visible;"><svg xmlns="http://www.w3.org/2000/svg" viewBox="42.67300033569336 0 426.65399169921875 512.0001220703125"><path d="M465.414 365.077l-234.667-192c-4.565-3.723-11.285-3.04-15.008 1.525a10.666 10.666 0 0 0-2.4 6.731v320a10.667 10.667 0 0 0 7.573 10.219c1.003.302 2.046.453 3.093.448a10.668 10.668 0 0 0 8.875-4.757L315.057 384h143.616c5.891-.007 10.661-4.788 10.654-10.679a10.669 10.669 0 0 0-3.913-8.244z" fill="#2196f3"></path><path d="M224.006 106.667c-5.891 0-10.667-4.776-10.667-10.667V10.667C213.34 4.776 218.115 0 224.006 0s10.667 4.776 10.667 10.667V96c0 5.891-4.776 10.667-10.667 10.667zM138.673 192H53.34c-5.891 0-10.667-4.776-10.667-10.667s4.776-10.667 10.667-10.667h85.333c5.891 0 10.667 4.776 10.667 10.667S144.564 192 138.673 192zm256 0H309.34c-5.891 0-10.667-4.776-10.667-10.667s4.776-10.667 10.667-10.667h85.333c5.891 0 10.667 4.776 10.667 10.667S400.564 192 394.673 192zm-230.997-60.331a10.663 10.663 0 0 1-7.552-3.115L95.772 68.267c-4.189-4.189-4.189-10.979 0-15.168s10.979-4.189 15.168 0l60.267 60.352c4.171 4.16 4.179 10.914.019 15.085a10.667 10.667 0 0 1-7.571 3.134h.021zm-60.352 181.014a10.667 10.667 0 1 1-7.552-18.219l60.352-60.352c4.237-4.092 10.99-3.975 15.083.262 3.992 4.134 3.992 10.687 0 14.82l-60.267 60.373a10.665 10.665 0 0 1-7.616 3.116zm181.013-181.014a10.667 10.667 0 1 1-7.552-18.219l60.288-60.352c4.237-4.093 10.99-3.975 15.083.262 3.992 4.134 3.992 10.687 0 14.82l-60.267 60.352a10.661 10.661 0 0 1-7.552 3.137z" fill="#444"></path></svg></svg> <!----></g></g> <g transform="translate(67,11.38975715637207)"><g data-gra="path-name" fill-rule="" class="tp-name iconsvg-namesvg" transform="translate(0,0)"><g transform="scale(1)"><g><path d="M26.71-30.2L26.71-30.2 29.92-28.8Q32.04-27.86 30.38-26.21L30.38-26.21Q29.56-25.24 25.81-22.79 22.07-20.34 20.56-19.69L20.56-19.69Q18.43-18.72 16.31-20.88L16.31-20.88Q14.18-23.08 16.42-23.83L16.42-23.83Q17.82-24.23 21.24-26.14L21.24-26.14Q24.66-28.08 26.71-30.2ZM34.31-17.5L34.31-14.62Q34.31-12.28 31.97-12.28L31.97-12.28 22.32-12.28Q26.17-5 32.98-3.56L32.98-3.56Q35.21-2.84 33.7-1.04L33.7-1.04 33.23-0.43 32.8 0.18Q31.57 2.2 29.38 1.4L29.38 1.4Q26.03 0.43 22.54-3.1L22.54-3.1Q19.08-6.66 16.88-12.28L16.88-12.28 13.03-12.28 13.03-4.28 20.23-5.72 20.52-2.99Q20.7-0.65 18.43-0.14L18.43-0.14Q13.54 0.97 11.05 1.66L11.05 1.66 9.68 2.02Q7.56 2.99 6.73 0.65L6.73 0.65 6.7 0.65Q5.58-1.4 7.09-3.17L7.09-3.17 7.49-4.43 7.49-12.28 4.07-12.28Q1.73-12.28 1.73-14.62L1.73-14.62 1.73-17.5 7.49-17.5 7.49-30.71 13.03-30.71 13.03-17.5 34.31-17.5ZM48.64-2.27L48.64-1.8Q48.64-1.12 49.32-1.12L49.32-1.12 58.14-1.12Q58.79-1.12 58.79-1.8L58.79-1.8 58.79-2.27 48.64-2.27ZM48.64-6.19L58.79-6.19 58.79-7.38 48.64-7.38 48.64-6.19ZM58.9-11.74L58.1-12.96 49.97-12.96 49.1-11.74 58.9-11.74ZM71.35-17.57L71.35-15.3Q71.35-12.96 69.01-12.96L69.01-12.96 64.44-12.96Q67.75-9.79 70.09-9.07L70.09-9.07Q72.29-8.17 70.42-5.87L70.42-5.87Q68.58-3.6 66.49-4.68L66.49-4.68Q66.56-4.5 64.84-5.76L64.84-5.76 64.84 1.01Q64.84 3.35 62.5 3.35L62.5 3.35 45.25 3.35Q42.91 3.35 42.91 1.01L42.91 1.01 42.91-5.72Q41.54-4.68 41.58-4.79L41.58-4.79Q39.6-3.56 37.69-5.83L37.69-5.83Q35.82-8.14 37.87-9.29L37.87-9.29Q39.71-10.15 42.59-12.96L42.59-12.96 39.02-12.96Q36.68-12.96 36.68-15.3L36.68-15.3 36.68-17.57 46.22-17.57 46.91-18.76 42.44-18.76Q40.1-18.76 40.1-21.1L40.1-21.1 40.1-23 48.74-23 49.07-24.08 41-24.08Q38.66-24.08 38.66-26.42L38.66-26.42 38.66-28.58 50.04-28.58 50.36-30.78 54.61-30.38Q56.27-30.24 56.02-28.58L56.02-28.58 69.23-28.58 69.23-26.42Q69.23-24.08 66.89-24.08L66.89-24.08 55.04-24.08 54.72-23 68.11-23 68.11-21.1Q68.11-18.76 65.77-18.76L65.77-18.76 53.17-18.76 52.67-17.57 71.35-17.57ZM73.37-26.1L87.41-26.1 86.8-27.5Q85.86-29.66 88.45-30.46L88.45-30.46Q91.08-31.25 92.16-29.16L92.16-29.16Q92.95-27.68 93.6-26.1L93.6-26.1 106.78-26.1 106.78-23.33Q106.78-20.99 104.44-20.99L104.44-20.99 92.59-20.99 92.59-17.46 104.26-17.46 104.26-5.51Q104.26-3.64 103.75-2.52L103.75-2.52Q103.28-1.44 102.1-0.86L102.1-0.86Q100.26 0 97.96-0.22L97.96-0.22Q95.65 0 94.93-2.2L94.93-2.2 93.92-5.15Q95.36-5.04 97.99-5.04L97.99-5.04Q98.78-5.04 98.78-5.62L98.78-5.62 98.78-12.35 92.59-12.35 92.59 0.83Q92.59 3.17 89.86 3.17 87.12 3.17 87.12 0.83L87.12 0.83 87.12-12.35 81.47-12.35 81.47-2.41Q81.47-0.07 78.8-0.07L78.8-0.07Q76.18-0.07 76.18-2.41L76.18-2.41 76.18-17.46 87.12-17.46 87.12-20.99 75.71-20.99Q73.37-20.99 73.37-23.33L73.37-23.33 73.37-26.1ZM131-27.86L131-29.84 137.63-29.84Q138.35-25.81 139.79-22.1L139.79-22.1Q141.26-18.4 141.73-17.96L141.73-17.96Q143.24-16.13 141.55-14.47L141.55-14.47 141.23-14.11 140.87-13.72Q139.43-11.88 138.2-13.86L138.2-13.86Q135.79-17.03 133.34-25.52L133.34-25.52Q131-25.52 131-27.86L131-27.86ZM125.42-29.66L125.42-29.66 128.02-29.12Q130.32-28.66 129.85-26.39L129.85-26.39Q128.27-17.57 125.57-13.82L125.57-13.82Q124.42-11.81 122.83-13.93L122.83-13.93 122.58-14.22Q121-15.98 122.11-18.04L122.11-18.04Q124.02-20.48 125.42-29.66ZM121.64-13.61L121.64-13.61Q122.98-11.66 121.46-9.9L121.46-9.9Q119.99-8.14 119.09-10.33L119.09-10.33Q119.45-9.58 118.33-11.92L118.33-11.92 118.33 1.08Q118.33 3.42 115.96 3.42L115.96 3.42Q113.62 3.42 113.62 1.08L113.62 1.08 113.62-8.28Q112.39-4.68 112.1-4.39L112.1-4.39Q110.88-2.38 109.66-5.04L109.66-5.04Q108.47-7.74 109.58-9.76L109.58-9.76 111.28-12.78Q112.57-15.91 113.33-19.15L113.33-19.15 111.56-19.15Q109.22-19.15 109.22-21.49L109.22-21.49 109.22-23.98 113.62-23.98 113.62-30.78 118.33-30.78 118.33-23.98 122.36-23.98 122.36-21.49Q122.36-19.15 120.02-19.15L120.02-19.15 118.33-19.15 118.33-18.14Q119.09-17.24 120.71-14.94L120.71-14.94Q122.36-12.64 121.64-13.61ZM135.36-4.79L134.35-7.31Q133.49-9.47 135.72-10.4 137.95-11.34 138.85-9.22L138.85-9.22Q142.2-1.58 142.24-1.26L142.24-1.26Q143.03 0.94 140.62 2.09 138.2 3.24 137.48 1.01L137.48 1.01Q137.77 1.73 137.05-0.32L137.05-0.32Q128.92 0.76 126.47 1.19L126.47 1.19 125.21 1.33Q123.01 2.12 122.18-0.29L122.18-0.29Q121.39-2.74 123.44-3.85L123.44-3.85Q123.37-3.31 126.58-11.05L126.58-11.05Q128.23-15.12 129.35-19.08L129.35-19.08 132.34-18.36Q134.6-17.82 133.81-15.62L133.81-15.62Q132.23-10.87 128.74-4.61L128.74-4.61Q128.45-4.03 129.1-4.1L129.1-4.1 135.36-4.79ZM169.27-6.19L169.27-6.19 171.9-6.19 172.15-9.72 168.41-9.72 169.06-9.25Q170.93-7.85 169.27-6.19ZM166.07-9.72L166.07-9.72 163.51-9.72 163.19-6.88Q163.12-6.19 163.8-6.19L163.8-6.19 167.15-6.19 166.36-6.84Q164.48-8.28 166.07-9.72ZM156.96-12.46L156.96-14.08 159.37-14.08 159.73-18.61Q159.3-18.11 158.8-18.58L158.8-18.58Q158.04-19.44 156.02-20.92L156.02-20.92Q156.02-19.01 153.68-19.01L153.68-19.01 153.11-19.01Q154.55-16.7 156.96-12.46L156.96-12.46ZM166.54-17.32L166.54-17.32 164.3-17.32 163.98-14.08 167.51-14.08 166.93-14.51Q165.1-15.95 166.54-17.32ZM169.81-14.08L172.37-14.08 172.48-17.32 169.45-17.1Q171.36-15.7 169.81-14.08L169.81-14.08ZM179.03-14.08L179.03-11.99Q179.03-9.72 176.76-9.72L176.76-9.72 176.51-6.19 178.6-6.19 178.6-4.32Q178.6-1.98 176.04-1.98L176.04-1.98Q175.68 0.36 175.1 1.12L175.1 1.12Q174.1 2.66 172.22 2.99L172.22 2.99Q171.04 3.24 170.42 3.13L170.42 3.13Q168.08 3.17 167.47 1.04L167.47 1.04Q166.86-1.04 169.2-0.97L169.2-0.97 169.81-0.94Q170.78-0.94 171.22-1.98L171.22-1.98 160.09-1.98Q157.75-1.98 158.15-4.32L158.15-4.32Q158.22-4.54 158.87-9.72L158.87-9.72Q156.96-9.72 156.96-11.95L156.96-11.95 155.77-9.9Q154.62-7.88 153.83-10.08L153.83-10.08Q153.14-12.1 153.11-11.88L153.11-11.88 153.11 1.08Q153.11 3.42 150.77 3.42 148.43 3.42 148.43 1.08L148.43 1.08 148.43-6.48Q147.64-4.25 147.67-4.61L147.67-4.61Q146.63-2.52 145.48-4.79L145.48-4.79Q144.36-7.09 145.4-9.18L145.4-9.18Q147.06-11.77 148.43-19.01L148.43-19.01 147.49-19.01Q145.15-19.01 145.15-21.35L145.15-21.35 145.15-23.72 148.43-23.72 148.43-30.78 153.11-30.78 153.11-23.72 156.02-23.72 156.02-21.67Q159.41-25.13 160.96-30.85L160.96-30.85 163.33-30.28Q165.6-29.77 164.84-27.54L164.84-27.54 176.36-27.54Q178.52-27.54 178.52-25.38L178.52-25.38Q178.52-23.04 176.18-23.04L176.18-23.04 162.79-23.04 161.86-21.49 177.19-21.49Q177.08-17.35 176.94-14.08L176.94-14.08 179.03-14.08Z" transform="translate(-1.7300000190734863, 30.850000381469727)"></path></g> <!----> <!----> <!----> <!----> <!----> <!----> <!----></g></g> <g data-gra="path-slogan" fill-rule="" class="tp-slogan iconsvg-slogansvg" fill="#333" transform="translate(5,40.27000045776367)"><rect x="0" height="1" y="3.9750003814697266" width="12.705001831054688"></rect> <rect height="1" y="3.9750003814697266" width="12.705001831054688" x="154.59500122070312"></rect> <g transform="translate(15.705001831054688,0)"><g transform="scale(1)"><path d="M8.06-6.05L8.06-6.05L6.94-6.05Q6.52-7.78 4.55-7.83L4.55-7.83Q1.83-7.69 1.73-4.36L1.73-4.36Q1.73-0.80 4.59-0.80L4.59-0.80Q6.56-0.84 7.03-3.19L7.03-3.19L8.16-3.19Q7.64 0.05 4.36 0.14L4.36 0.14Q0.61 0 0.52-4.31L0.52-4.31Q0.70-8.63 4.55-8.81L4.55-8.81Q7.59-8.72 8.06-6.05ZM10.69-5.06L15.19-5.06L15.19-8.58L16.36-8.58L16.36 0L15.19 0L15.19-3.98L10.69-3.98L10.69 0L9.52 0L9.52-8.58L10.69-8.58L10.69-5.06ZM23.81 0L22.97-2.48L19.50-2.48L18.61 0L17.44 0L20.67-8.58L21.98-8.58L25.08 0L23.81 0ZM21.23-7.31L19.88-3.52L22.55-3.52L21.28-7.31L21.23-7.31ZM27.52-8.58L31.83-1.64L31.83-8.58L32.95-8.58L32.95 0L31.64 0L27.28-6.94L27.23-6.94L27.23 0L26.11 0L26.11-8.58L27.52-8.58ZM41.16-3.61L38.53-3.61L38.53-4.59L42.28-4.59L42.28 0L41.53 0L41.25-1.08Q40.27 0.09 38.44 0.14L38.44 0.14Q36.70 0.14 35.77-0.75L35.77-0.75Q34.36-2.06 34.41-4.36L34.41-4.36Q34.73-8.63 38.48-8.81L38.48-8.81Q41.67-8.63 42.14-6L42.14-6L41.02-6Q40.55-7.78 38.44-7.83L38.44-7.83Q35.77-7.64 35.63-4.31L35.63-4.31Q35.63-0.75 38.48-0.75L38.48-0.75Q39.52-0.75 40.27-1.31L40.27-1.31Q41.20-2.06 41.16-3.61L41.16-3.61ZM51.23-6.05L51.23-6.05L50.11-6.05Q49.69-7.78 47.72-7.83L47.72-7.83Q45-7.69 44.91-4.36L44.91-4.36Q44.91-0.80 47.77-0.80L47.77-0.80Q49.73-0.84 50.20-3.19L50.20-3.19L51.33-3.19Q50.81 0.05 47.53 0.14L47.53 0.14Q43.78 0 43.69-4.31L43.69-4.31Q43.88-8.63 47.72-8.81L47.72-8.81Q50.77-8.72 51.23-6.05ZM53.86-5.06L58.36-5.06L58.36-8.58L59.53-8.58L59.53 0L58.36 0L58.36-3.98L53.86-3.98L53.86 0L52.69 0L52.69-8.58L53.86-8.58L53.86-5.06ZM66.98-3.19L66.98-8.58L68.16-8.58L68.16-3.05Q68.02 0.05 64.64 0.14L64.64 0.14Q61.50 0.05 61.36-2.86L61.36-2.86L61.36-8.58L62.53-8.58L62.53-3.19Q62.58-0.84 64.69-0.80L64.69-0.80Q66.98-0.84 66.98-3.19L66.98-3.19ZM71.34-8.58L75.66-1.64L75.66-8.58L76.78-8.58L76.78 0L75.47 0L71.11-6.94L71.06-6.94L71.06 0L69.94 0L69.94-8.58L71.34-8.58ZM88.17-6.09L88.17-6.09L87.09-6.09Q87-7.73 84.94-7.83L84.94-7.83Q83.02-7.78 83.02-6.33L83.02-6.33Q83.02-5.39 84.05-5.25L84.05-5.25L86.48-4.69Q88.41-4.22 88.41-2.34L88.41-2.34Q88.36 0.05 85.03 0.14L85.03 0.14Q83.20 0.14 82.45-0.61L82.45-0.61Q81.52-1.31 81.56-2.77L81.56-2.77L82.69-2.77Q82.73-0.80 85.03-0.75L85.03-0.75Q87.28-0.80 87.33-2.20L87.33-2.20Q87.52-3.38 85.45-3.75L85.45-3.75L83.67-4.13Q81.84-4.64 81.84-6.19L81.84-6.19Q81.98-8.72 84.84-8.81L84.84-8.81Q88.08-8.81 88.17-6.09ZM96.66-4.27L96.66-4.27Q96.47-7.64 93.66-7.83L93.66-7.83Q90.80-7.69 90.66-4.27L90.66-4.27Q90.80-0.94 93.66-0.80L93.66-0.80Q96.47-0.98 96.66-4.27ZM97.83-4.27L97.83-4.27Q97.55 0 93.66 0.14L93.66 0.14Q89.72 0 89.44-4.27L89.44-4.27Q89.67-8.72 93.66-8.81L93.66-8.81Q97.55-8.67 97.83-4.27ZM100.59-8.58L104.91-1.64L104.91-8.58L106.03-8.58L106.03 0L104.72 0L100.36-6.94L100.31-6.94L100.31 0L99.19 0L99.19-8.58L100.59-8.58ZM114.23-3.61L111.61-3.61L111.61-4.59L115.36-4.59L115.36 0L114.61 0L114.33-1.08Q113.34 0.09 111.52 0.14L111.52 0.14Q109.78 0.14 108.84-0.75L108.84-0.75Q107.44-2.06 107.48-4.36L107.48-4.36Q107.81-8.63 111.56-8.81L111.56-8.81Q114.75-8.63 115.22-6L115.22-6L114.09-6Q113.63-7.78 111.52-7.83L111.52-7.83Q108.84-7.64 108.70-4.31L108.70-4.31Q108.70-0.75 111.56-0.75L111.56-0.75Q112.59-0.75 113.34-1.31L113.34-1.31Q114.28-2.06 114.23-3.61L114.23-3.61ZM125.39-8.58L125.39 0L124.27 0L124.27-5.06Q124.27-5.77 124.27-7.22L124.27-7.22L121.83 0L120.66 0L118.27-7.22L118.22-7.22Q118.22-6.70 118.27-5.67L118.27-5.67Q118.27-5.16 118.27-5.06L118.27-5.06L118.27 0L117.09 0L117.09-8.58L118.78-8.58L121.27-1.31L123.70-8.58L125.39-8.58ZM128.39-1.03L133.55-1.03L133.55 0L127.22 0L127.22-8.58L133.45-8.58L133.45-7.59L128.39-7.59L128.39-4.92L133.08-4.92L133.08-3.89L128.39-3.89L128.39-1.03ZM135.23-8.58L136.41-8.58L136.41 0L135.23 0L135.23-8.58Z" transform="translate(-0.515625, 8.8125)"></path></g></g></g></g></g><defs v-gra="od"></defs></svg>